<svg width="196" height="35" viewBox="0 0 196 35" fill="none" xmlns="http://www.w3.org/2000/svg">
<path d="M3.736 6.288C2.776 6.288 1.98667 6.01067 1.368 5.456C0.770667 4.88 0.472 4.176 0.472 3.344C0.472 2.49067 0.770667 1.78667 1.368 1.232C1.98667 0.655998 2.776 0.367998 3.736 0.367998C4.67467 0.367998 5.44267 0.655998 6.04 1.232C6.65867 1.78667 6.968 2.49067 6.968 3.344C6.968 4.176 6.65867 4.88 6.04 5.456C5.44267 6.01067 4.67467 6.288 3.736 6.288ZM6.456 8.144V26H0.984V8.144H6.456ZM165.016 7.728H171.896L178.392 14.8L171.896 21.872H165.016L171.544 14.8L165.016 7.728ZM182.329 7.728H189.209L195.705 14.8L189.209 21.872H182.329L188.857 14.8L182.329 7.728Z" fill="#FFBB00"/>
<path d="M28.0828 7.952C30.1734 7.952 31.8374 8.63467 33.0748 10C34.3334 11.344 34.9628 13.2 34.9628 15.568V26H29.5228V16.304C29.5228 15.1093 29.2134 14.1813 28.5948 13.52C27.9761 12.8587 27.1441 12.528 26.0988 12.528C25.0534 12.528 24.2214 12.8587 23.6028 13.52C22.9841 14.1813 22.6748 15.1093 22.6748 16.304V26H17.2028V8.144H22.6748V10.512C23.2294 9.72267 23.9761 9.104 24.9148 8.656C25.8534 8.18667 26.9094 7.952 28.0828 7.952ZM45.5493 7.888C46.8079 7.888 47.9066 8.144 48.8453 8.656C49.8053 9.168 50.5413 9.84 51.0533 10.672V8.144H56.5253V25.968C56.5253 27.6107 56.1946 29.0933 55.5333 30.416C54.8933 31.76 53.9013 32.8267 52.5573 33.616C51.2346 34.4053 49.5813 34.8 47.5973 34.8C44.9519 34.8 42.8079 34.1707 41.1653 32.912C39.5226 31.6747 38.5839 29.9893 38.3493 27.856H43.7573C43.9279 28.5387 44.3333 29.072 44.9733 29.456C45.6133 29.8613 46.4026 30.064 47.3413 30.064C48.4719 30.064 49.3679 29.7333 50.0293 29.072C50.7119 28.432 51.0533 27.3973 51.0533 25.968V23.44C50.5199 24.272 49.7839 24.9547 48.8453 25.488C47.9066 26 46.8079 26.256 45.5493 26.256C44.0773 26.256 42.7439 25.8827 41.5493 25.136C40.3546 24.368 39.4053 23.2907 38.7013 21.904C38.0186 20.496 37.6773 18.8747 37.6773 17.04C37.6773 15.2053 38.0186 13.5947 38.7013 12.208C39.4053 10.8213 40.3546 9.75467 41.5493 9.008C42.7439 8.26133 44.0773 7.888 45.5493 7.888ZM51.0533 17.072C51.0533 15.7067 50.6693 14.6293 49.9013 13.84C49.1546 13.0507 48.2373 12.656 47.1493 12.656C46.0613 12.656 45.1333 13.0507 44.3653 13.84C43.6186 14.608 43.2453 15.6747 43.2453 17.04C43.2453 18.4053 43.6186 19.4933 44.3653 20.304C45.1333 21.0933 46.0613 21.488 47.1493 21.488C48.2373 21.488 49.1546 21.0933 49.9013 20.304C50.6693 19.5147 51.0533 18.4373 51.0533 17.072ZM65.956 11.12C66.596 10.1387 67.396 9.37067 68.356 8.816C69.316 8.24 70.3827 7.952 71.556 7.952V13.744H70.052C68.6867 13.744 67.6627 14.0427 66.98 14.64C66.2973 15.216 65.956 16.24 65.956 17.712V26H60.484V8.144H65.956V11.12ZM91.0035 16.784C91.0035 17.296 90.9715 17.8293 90.9075 18.384H78.5235C78.6088 19.4933 78.9608 20.3467 79.5795 20.944C80.2195 21.52 80.9982 21.808 81.9155 21.808C83.2808 21.808 84.2302 21.232 84.7635 20.08H90.5875C90.2888 21.2533 89.7448 22.3093 88.9555 23.248C88.1875 24.1867 87.2168 24.9227 86.0435 25.456C84.8702 25.9893 83.5582 26.256 82.1075 26.256C80.3582 26.256 78.8008 25.8827 77.4355 25.136C76.0702 24.3893 75.0035 23.3227 74.2355 21.936C73.4675 20.5493 73.0835 18.928 73.0835 17.072C73.0835 15.216 73.4568 13.5947 74.2035 12.208C74.9715 10.8213 76.0382 9.75467 77.4035 9.008C78.7688 8.26133 80.3368 7.888 82.1075 7.888C83.8355 7.888 85.3715 8.25067 86.7155 8.976C88.0595 9.70133 89.1048 10.736 89.8515 12.08C90.6195 13.424 91.0035 14.992 91.0035 16.784ZM85.4035 15.344C85.4035 14.4053 85.0835 13.6587 84.4435 13.104C83.8035 12.5493 83.0035 12.272 82.0435 12.272C81.1262 12.272 80.3475 12.5387 79.7075 13.072C79.0888 13.6053 78.7048 14.3627 78.5555 15.344H85.4035ZM101.154 26.256C99.5969 26.256 98.2103 25.9893 96.9943 25.456C95.7783 24.9227 94.8183 24.1973 94.1143 23.28C93.4103 22.3413 93.0156 21.296 92.9303 20.144H98.3383C98.4023 20.7627 98.6903 21.264 99.2023 21.648C99.7143 22.032 100.344 22.224 101.09 22.224C101.773 22.224 102.296 22.096 102.658 21.84C103.042 21.5627 103.234 21.2107 103.234 20.784C103.234 20.272 102.968 19.8987 102.434 19.664C101.901 19.408 101.037 19.1307 99.8423 18.832C98.5623 18.5333 97.4956 18.224 96.6423 17.904C95.7889 17.5627 95.0529 17.04 94.4343 16.336C93.8156 15.6107 93.5063 14.64 93.5063 13.424C93.5063 12.4 93.7836 11.472 94.3383 10.64C94.9143 9.78667 95.7463 9.11467 96.8343 8.624C97.9436 8.13333 99.2556 7.888 100.77 7.888C103.01 7.888 104.77 8.44267 106.05 9.552C107.352 10.6613 108.098 12.1333 108.29 13.968H103.234C103.149 13.3493 102.872 12.8587 102.402 12.496C101.954 12.1333 101.357 11.952 100.61 11.952C99.9703 11.952 99.4796 12.08 99.1383 12.336C98.7969 12.5707 98.6263 12.9013 98.6263 13.328C98.6263 13.84 98.8929 14.224 99.4263 14.48C99.9809 14.736 100.834 14.992 101.986 15.248C103.309 15.5893 104.386 15.9307 105.218 16.272C106.05 16.592 106.776 17.1253 107.394 17.872C108.034 18.5973 108.365 19.5787 108.386 20.816C108.386 21.8613 108.088 22.8 107.49 23.632C106.914 24.4427 106.072 25.0827 104.962 25.552C103.874 26.0213 102.605 26.256 101.154 26.256ZM118.998 26.256C117.441 26.256 116.054 25.9893 114.838 25.456C113.622 24.9227 112.662 24.1973 111.958 23.28C111.254 22.3413 110.859 21.296 110.774 20.144H116.182C116.246 20.7627 116.534 21.264 117.046 21.648C117.558 22.032 118.187 22.224 118.934 22.224C119.617 22.224 120.139 22.096 120.502 21.84C120.886 21.5627 121.078 21.2107 121.078 20.784C121.078 20.272 120.811 19.8987 120.278 19.664C119.745 19.408 118.881 19.1307 117.686 18.832C116.406 18.5333 115.339 18.224 114.486 17.904C113.633 17.5627 112.897 17.04 112.278 16.336C111.659 15.6107 111.35 14.64 111.35 13.424C111.35 12.4 111.627 11.472 112.182 10.64C112.758 9.78667 113.59 9.11467 114.678 8.624C115.787 8.13333 117.099 7.888 118.614 7.888C120.854 7.888 122.614 8.44267 123.894 9.552C125.195 10.6613 125.942 12.1333 126.134 13.968H121.078C120.993 13.3493 120.715 12.8587 120.246 12.496C119.798 12.1333 119.201 11.952 118.454 11.952C117.814 11.952 117.323 12.08 116.982 12.336C116.641 12.5707 116.47 12.9013 116.47 13.328C116.47 13.84 116.737 14.224 117.27 14.48C117.825 14.736 118.678 14.992 119.83 15.248C121.153 15.5893 122.23 15.9307 123.062 16.272C123.894 16.592 124.619 17.1253 125.238 17.872C125.878 18.5973 126.209 19.5787 126.23 20.816C126.23 21.8613 125.931 22.8 125.334 23.632C124.758 24.4427 123.915 25.0827 122.806 25.552C121.718 26.0213 120.449 26.256 118.998 26.256ZM128.49 17.04C128.49 15.2053 128.831 13.5947 129.514 12.208C130.218 10.8213 131.167 9.75467 132.362 9.008C133.556 8.26133 134.89 7.888 136.362 7.888C137.62 7.888 138.719 8.144 139.658 8.656C140.618 9.168 141.354 9.84 141.866 10.672V8.144H147.338V26H141.866V23.472C141.332 24.304 140.586 24.976 139.626 25.488C138.687 26 137.588 26.256 136.33 26.256C134.879 26.256 133.556 25.8827 132.362 25.136C131.167 24.368 130.218 23.2907 129.514 21.904C128.831 20.496 128.49 18.8747 128.49 17.04ZM141.866 17.072C141.866 15.7067 141.482 14.6293 140.714 13.84C139.967 13.0507 139.05 12.656 137.962 12.656C136.874 12.656 135.946 13.0507 135.178 13.84C134.431 14.608 134.058 15.6747 134.058 17.04C134.058 18.4053 134.431 19.4933 135.178 20.304C135.946 21.0933 136.874 21.488 137.962 21.488C139.05 21.488 139.967 21.0933 140.714 20.304C141.482 19.5147 141.866 18.4373 141.866 17.072ZM156.769 11.12C157.409 10.1387 158.209 9.37067 159.169 8.816C160.129 8.24 161.195 7.952 162.369 7.952V13.744H160.865C159.499 13.744 158.475 14.0427 157.793 14.64C157.11 15.216 156.769 16.24 156.769 17.712V26H151.297V8.144H156.769V11.12Z" fill="white"/>
</svg>
